<?xml version="1.0" encoding="utf-8"?>
<!-- Generator: Adobe Illustrator 12.0.0, SVG Export Plug-In . SVG Version: 6.00 Build 51448)  -->
<!DOCTYPE svg PUBLIC "-//W3C//DTD SVG 1.1//EN" "http://www.w3.org/Graphics/SVG/1.1/DTD/svg11.dtd" [
	<!ENTITY ns_svg "http://www.w3.org/2000/svg">
	<!ENTITY ns_xlink "http://www.w3.org/1999/xlink">
]>
<svg  version="1.1" id="Layer_1" xmlns="&ns_svg;" xmlns:xlink="&ns_xlink;" width="476.27" height="157.263"
	 viewBox="0 0 476.27 157.263" overflow="visible" enable-background="new 0 0 476.27 157.263" xml:space="preserve">
<g>
	<path id="path26" fill="#FFFFFF" d="M88.692,157.263v-53.022h7.577c0,17.677,0,35.347,0,53.022H88.692"/>
	<path id="path32" fill="#FFFFFF" d="M0,157.263v-53.022h7.574v22.727h7.575v-22.727h7.575v53.022h-7.575v-22.727H7.574v22.727H0"/>
	<path id="path34" fill="#FFFFFF" d="M53.282,138.326h4.849l-2.423-15.147L53.282,138.326z M42.375,157.263l9.544-53.022h7.578
		l9.541,53.022h-7.575l-1.966-11.358H51.92l-1.97,11.358H42.375"/>
	<path id="path36" fill="#FFFFFF" d="M123.497,126.967h3.785c1.313,0,2.275-0.637,2.88-1.898c0.604-1.261,0.909-3.151,0.909-5.68
		c0-2.521-0.305-4.419-0.909-5.68c-0.604-1.267-1.566-1.891-2.88-1.891h-3.785V126.967z M115.922,157.263v-53.022h11.36
		c3.838,0,6.691,1.267,8.56,3.789c1.868,2.521,2.804,6.159,2.804,10.905c0,4.748-0.454,8.184-1.363,10.305s-1.971,3.63-3.181,4.543
		l6.513,23.48h-7.574l-6.517-22.727h-3.027v22.727H115.922"/>
	<path id="path38" fill="#FFFFFF" d="M210.219,126.967h3.785c1.313,0,2.275-0.637,2.879-1.898c0.604-1.261,0.911-3.151,0.911-5.68
		c0-2.521-0.307-4.419-0.911-5.68c-0.604-1.267-1.565-1.891-2.879-1.891h-3.785V126.967z M202.644,157.263v-53.022h11.36
		c3.837,0,6.691,1.267,8.559,3.789c1.868,2.521,2.804,6.159,2.804,10.905c0,4.748-0.452,8.184-1.363,10.305
		c-0.909,2.121-1.969,3.63-3.181,4.543l6.515,23.48h-7.575l-6.518-22.727h-3.026v22.727H202.644"/>
	<path id="path40" fill="#FFFFFF" d="M285.584,142.116h7.57c0,2.521,0.303,4.419,0.913,5.68c0.604,1.261,1.563,1.892,2.876,1.892
		s2.271-0.631,2.875-1.892s0.906-3.158,0.906-5.68c0-2.528-2.521-5.687-7.57-9.469c-5.049-3.789-7.57-8.202-7.57-13.258
		c0-5.05,0.934-8.839,2.797-11.359c1.871-2.522,4.721-3.789,8.563-3.789c3.835,0,6.686,1.267,8.557,3.789
		c1.871,2.521,2.803,6.31,2.803,11.359h-7.578c0-2.521-0.303-4.419-0.906-5.68c-0.604-1.267-1.563-1.891-2.875-1.891
		s-2.271,0.624-2.876,1.891c-0.61,1.261-0.913,3.159-0.913,5.68c0,2.423,2.529,5.555,7.57,9.397
		c5.058,3.834,7.578,8.273,7.578,13.329c0,5.05-0.932,8.839-2.803,11.358c-1.871,2.523-4.722,3.789-8.557,3.789
		c-3.842,0-6.691-1.266-8.563-3.789C286.518,150.955,285.584,147.166,285.584,142.116"/>
	<path id="path42" fill="#FFFFFF" d="M327.958,142.116h7.57c0,2.521,0.301,4.419,0.912,5.68c0.604,1.261,1.57,1.892,2.877,1.892
		c1.313,0,2.277-0.631,2.881-1.892c0.605-1.261,0.908-3.158,0.908-5.68c0-2.528-2.521-5.687-7.578-9.469
		c-5.043-3.789-7.57-8.202-7.57-13.258c0-5.05,0.939-8.839,2.803-11.359c1.865-2.522,4.715-3.789,8.557-3.789
		c3.84,0,6.691,1.267,8.555,3.789c1.873,2.521,2.811,6.31,2.811,11.359h-7.576c0-2.521-0.303-4.419-0.908-5.68
		c-0.604-1.267-1.568-1.891-2.881-1.891c-1.307,0-2.273,0.624-2.877,1.891c-0.611,1.261-0.912,3.159-0.912,5.68
		c0,2.423,2.527,5.555,7.578,9.397c5.049,3.834,7.576,8.273,7.576,13.329c0,5.05-0.938,8.839-2.811,11.358
		c-1.863,2.523-4.715,3.789-8.555,3.789c-3.842,0-6.691-1.266-8.557-3.789C328.897,150.955,327.958,147.166,327.958,142.116"/>
	<path id="path44" fill="#FFFFFF" d="M370.329,157.263v-53.022h18.938v7.578h-11.357v15.148h11.357v7.569h-11.357v15.15h11.357
		v7.576H370.329"/>
	<path id="path46" fill="#FFFFFF" d="M416.491,126.967h3.797c1.311,0,2.271-0.637,2.875-1.898c0.604-1.261,0.906-3.151,0.906-5.68
		c0-2.521-0.303-4.419-0.906-5.68c-0.604-1.267-1.564-1.891-2.875-1.891h-3.797V126.967z M408.926,157.263v-53.022h11.361
		c3.834,0,6.684,1.267,8.555,3.789c1.871,2.521,2.803,6.159,2.803,10.905c0,4.748-0.451,8.184-1.365,10.305
		c-0.906,2.121-1.971,3.63-3.178,4.543l6.514,23.48h-7.578l-6.512-22.727h-3.035v22.727H408.926"/>
	<path id="path50" fill="#FFFFFF" d="M175.417,142.116c0,2.521-0.307,4.419-0.911,5.68s-1.565,1.892-2.875,1.892h-3.789v-37.868
		h3.789c1.31,0,2.271,0.624,2.875,1.891c0.604,1.261,0.911,3.159,0.911,5.68V142.116z M180.188,108.03
		c-1.869-2.522-4.721-3.789-8.556-3.789h-11.364v33.796l5.332,19.227h6.032c3.835,0,6.687-1.266,8.556-3.789
		c1.871-2.52,2.803-6.309,2.803-11.358v-22.727C182.991,114.339,182.059,110.55,180.188,108.03"/>
	<path id="path52" fill="#FFFFFF" d="M265.924,111.819v-7.578h-18.936v33.514l5.408,19.509h13.527v-7.576h-11.36v-15.15h11.36
		v-7.569h-11.36v-15.148H265.924"/>
	<path id="path54" fill="#FFFFFF" d="M468.417,128.787c-5.049-3.843-7.576-6.975-7.576-9.397c0-2.521,0.301-4.419,0.912-5.68
		c0.605-1.267,1.568-1.891,2.883-1.891c1.307,0,2.273,0.624,2.877,1.891c0.604,1.261,0.904,3.159,0.904,5.68h7.578
		c0-5.05-0.939-8.839-2.809-11.359c-1.865-2.522-4.715-3.789-8.551-3.789c-3.848,0-6.697,1.267-8.563,3.789
		c-1.865,2.521-2.803,6.31-2.803,11.359c0,5.056,2.527,9.469,7.57,13.258c5.055,3.782,7.576,6.94,7.576,9.469
		c0,2.521-0.301,4.419-0.904,5.68s-1.57,1.892-2.877,1.892c-1.314,0-2.277-0.631-2.883-1.892c-0.611-1.261-0.912-3.158-0.912-5.68
		h-4.162l4.029,14.538c1.184,0.367,2.457,0.609,3.928,0.609c3.836,0,6.686-1.266,8.551-3.789c1.869-2.52,2.809-6.309,2.809-11.358
		C475.995,137.06,473.467,132.621,468.417,128.787"/>
</g>
<g>
	<path id="path14" fill="#FFFFFF" d="M74.711,59.255c0,3.947-0.479,6.908-1.425,8.884c-0.945,1.97-2.45,2.961-4.5,2.961
		c-2.052,0-3.557-0.991-4.502-2.961c-0.953-1.977-1.425-4.938-1.425-8.884V23.697c0-3.945,0.472-6.907,1.425-8.884
		c0.945-1.982,2.45-2.961,4.502-2.961c2.051,0,3.555,0.979,4.5,2.961c0.946,1.978,1.425,4.939,1.425,8.884 M82.174,5.924
		C79.252,1.976,74.787,0,68.786,0c-6.009,0-10.467,1.976-13.389,5.924c-2.926,3.952-4.387,9.875-4.387,17.773v23.12l14.981,35.892
		c0.909,0.105,1.796,0.243,2.794,0.243c6.001,0,10.466-1.977,13.388-5.923c2.922-3.953,4.386-9.876,4.386-17.775V23.697
		C86.561,15.798,85.096,9.876,82.174,5.924"/>
	<path id="path16" fill="#FFFFFF" d="M0,82.953V0h11.849v35.551L25.119,0h11.852L22.042,39.811l18.012,43.142H28.202L15.877,53.561
		l-4.028,10.198v19.193H0"/>
	<path id="path18" fill="#FFFFFF" d="M109.231,82.953V0h29.621v11.852h-17.775v23.699h17.775v11.852h-17.775v35.55H109.231"/>
	<path id="path20" fill="#FFFFFF" d="M160.243,82.953V0h29.62v11.852h-17.776v23.699h17.776v11.852h-17.776v35.55H160.243"/>
	<path id="path22" fill="#FFFFFF" d="M288.204,71.1h5.93c2.049,0,3.559-0.991,4.506-2.961c0.945-1.977,1.417-4.938,1.417-8.884
		c0-3.953-0.472-6.922-1.417-8.897c-0.947-1.963-2.457-2.956-4.506-2.956h-5.93V71.1z M288.204,35.551h5.93
		c2.049,0,3.559-0.993,4.506-2.969c0.945-1.964,1.417-4.931,1.417-8.885c0-3.945-0.472-6.907-1.417-8.884
		c-0.947-1.982-2.457-2.961-4.506-2.961h-5.93V35.551z M276.352,82.953V0h17.781c6.002,0,10.467,1.976,13.389,5.924
		c2.922,3.952,4.387,9.875,4.387,17.773c0,7.907-1.66,13.83-4.979,17.775c3.318,3.953,4.979,9.876,4.979,17.782
		c0,7.898-1.465,13.744-4.387,17.538c-2.922,3.789-7.387,5.845-13.389,6.16H276.352"/>
	<path id="path24" fill="#FFFFFF" d="M332.403,82.953V0h29.627v11.852h-17.777v23.699h17.777v11.852h-17.777V71.1h17.777v11.853
		H332.403"/>
	<path id="path28" fill="#FFFFFF" d="M213.417,47.402V0h11.966c0,27.651,0,19.752,0,47.402H213.417"/>
	<path id="path30" fill="#FFFFFF" d="M397.42,35.551h5.932c2.057,0,3.553-0.993,4.498-2.969c0.945-1.964,1.432-4.931,1.432-8.885
		c0-3.945-0.486-6.907-1.432-8.884c-0.945-1.982-2.441-2.961-4.498-2.961h-5.932V35.551z M385.577,82.953V0h17.775
		c6.002,0,10.467,1.976,13.389,5.924c2.922,3.952,4.387,9.639,4.387,17.064c0,7.428-0.711,12.798-2.135,16.121
		c-1.418,3.317-3.08,5.68-4.977,7.111l10.191,36.732h-11.854l-10.191-35.55h-4.742v35.55H385.577"/>
	<path id="path48" fill="#FFFFFF" d="M458.502,53.325h5.924v5.93c0,3.947-0.475,6.908-1.42,8.884
		c-0.951,1.97-2.455,2.961-4.504,2.961c-2.057,0-3.559-0.991-4.506-2.961c-0.951-1.977-1.424-4.938-1.424-8.884V23.697
		c0-3.945,0.473-6.907,1.424-8.884c0.947-1.982,2.449-2.961,4.506-2.961c2.049,0,3.553,0.979,4.504,2.961
		c0.945,1.978,1.42,4.939,1.42,8.884h11.844c0-7.899-1.457-13.821-4.387-17.773C468.969,1.976,464.504,0,458.502,0
		c-6.01,0-10.469,1.976-13.396,5.924c-2.914,3.952-4.387,9.875-4.387,17.773v22.661l9.707,34.985
		c2.285,1.051,4.963,1.609,8.076,1.609c6.002,0,10.467-1.977,13.381-5.923c2.93-3.953,4.387-9.876,4.387-17.775V41.473h-17.768
		V53.325"/>
	<path id="path56" fill="#FFFFFF" d="M241.668,0v59.255c0,3.947-0.477,6.908-1.422,8.884c-0.949,1.97-2.449,2.961-4.504,2.961
		h-10.248v11.853h10.248c6.002,0,10.465-1.977,13.393-5.923c2.921-3.953,4.379-9.876,4.379-17.775c0,0,0-37.626,0-59.255H241.668"/>
</g>
</svg>
